# xmcd CD database file
#
# Track frame offsets:
#	150
#	14015
#	29437
#	44540
#	65940
#	85972
#	98477
#	115627
#	130277
#	145912
#	163150
#	179045
#	189180
#	200285
#	211227
#	222112
#
# Disc length: 3088 seconds
#
# Revision: 0
# Processed by: cddbd v1.4PL0 Copyright (c) Steve Scherf et al.
# Submitted via: CDex 1.50
#
DISCID=ec0c0e10
DTITLE=Witherspoon, Jimmy - Tougher than tough
DYEAR=1900
DGENRE=Blues
TTITLE0=Times getting tougher than though
TTITLE1=How long
TTITLE2=Corrina, corrina
TTITLE3=C. C. Rider
TTITLE4=Roll 'em Pete
TTITLE5=Everyday
TTITLE6=Outskirts of town
TTITLE7=Kansas City
TTITLE8=Trouble in mind
TTITLE9=St Louis Blues
TTITLE10=In blues
TTITLE11=Loser's Blues
TTITLE12=Please send me someone to love
TTITLE13=Life's highway
TTITLE14=Cry the blues
TTITLE15=Out blues
EXTD=
EXTT0=
EXTT1=
EXTT2=
EXTT3=
EXTT4=
EXTT5=
EXTT6=
EXTT7=
EXTT8=
EXTT9=
EXTT10=
EXTT11=
EXTT12=
EXTT13=
EXTT14=
EXTT15=
PLAYORDER=
